<svg xmlns="http://www.w3.org/2000/svg" viewBox="0 0 512 512" role="img" aria-labelledby="title desc">
  <title id="title">Strategic Solutions Workstream Logo</title>
  <desc id="desc">Split brain icon with circuit lines on the left and lightbulb on the right</desc>
  <circle cx="256" cy="256" r="222" fill="none" stroke="#0b4d89" stroke-width="16"/>

  <path d="M256 118v276" fill="none" stroke="#f09a2f" stroke-width="14" stroke-linecap="round"/>
  <path d="M256 118v276" fill="none" stroke="#0b4d89" stroke-width="7" stroke-linecap="round" opacity=".9"/>

  <path d="M235 120c-34 0-49 24-52 45-27 6-40 27-40 50-20 13-33 35-33 60 0 39 29 74 70 74 11 21 30 39 55 39" fill="none" stroke="#0b4d89" stroke-width="14" stroke-linecap="round" stroke-linejoin="round"/>
  <path d="M277 120c34 0 49 24 52 45 27 6 40 27 40 50 20 13 33 35 33 60 0 39-29 74-70 74-11 21-30 39-55 39" fill="none" stroke="#f09a2f" stroke-width="14" stroke-linecap="round" stroke-linejoin="round"/>

  <circle cx="157" cy="200" r="12" fill="none" stroke="#0b4d89" stroke-width="10"/>
  <circle cx="122" cy="276" r="12" fill="none" stroke="#0b4d89" stroke-width="10"/>
  <circle cx="168" cy="330" r="12" fill="none" stroke="#0b4d89" stroke-width="10"/>
  <path d="M168 200h55m-101 76h80m46 54h-68" fill="none" stroke="#0b4d89" stroke-width="10" stroke-linecap="round"/>
  <path d="M223 178v165" fill="none" stroke="#0b4d89" stroke-width="10" stroke-linecap="round"/>

  <path d="M322 308v15c0 12-10 22-22 22h-32c-12 0-22-10-22-22v-15" fill="none" stroke="#f09a2f" stroke-width="10" stroke-linecap="round"/>
  <path d="M256 219c0-27 20-47 47-47 26 0 47 20 47 47 0 21-12 33-24 43-4 3-8 9-8 16h-25c0-7 4-13 8-16 12-10 24-22 24-43 0-14-10-24-24-24-15 0-25 10-25 24" fill="none" stroke="#f09a2f" stroke-width="10" stroke-linecap="round" stroke-linejoin="round"/>
  <path d="M281 357h42m-36 14h30" fill="none" stroke="#f09a2f" stroke-width="10" stroke-linecap="round"/>
  <circle cx="304" cy="256" r="8" fill="none" stroke="#f09a2f" stroke-width="8"/>
  <path d="M322 239l8-8m-53 8l-8-8m27-16v-10" fill="none" stroke="#f09a2f" stroke-width="8" stroke-linecap="round"/>
</svg>
